<svg xmlns="http://www.w3.org/2000/svg" width="74.543" height="74.848" viewBox="0 0 74.543 74.848">
  <g id="change-request" transform="translate(0.502 0.747)">
    <g id="Group_3577" data-name="Group 3577">
      <path id="Path_4375" data-name="Path 4375" d="M8.934,43.516h0a6.934,6.934,0,1,1,6.934-6.934A6.933,6.933,0,0,1,8.934,43.516Z" fill="none" stroke="#ddd" stroke-linejoin="round" stroke-width="4"/>
      <line id="Line_421" data-name="Line 421" x2="25.611" transform="translate(26.868 3.405)" fill="none" stroke="#ddd" stroke-linecap="round" stroke-linejoin="round" stroke-width="4"/>
      <path id="Path_4376" data-name="Path 4376" d="M8.934,72.1h0a6.934,6.934,0,1,1,6.934-6.934A6.934,6.934,0,0,1,8.934,72.1Z" fill="none" stroke="#ddd" stroke-linejoin="round" stroke-width="4"/>
      <line id="Line_422" data-name="Line 422" x2="35.611" transform="translate(26.868 70.696)" fill="none" stroke="#ddd" stroke-linecap="round" stroke-linejoin="round" stroke-width="4"/>
      <path id="Path_4377" data-name="Path 4377" d="M2.325,10.352l5.126,5.516L15.868,2" fill="none" stroke="#ddd" stroke-linecap="round" stroke-linejoin="round" stroke-width="4"/>
    </g>
    <rect id="Rectangle_1168" data-name="Rectangle 1168" width="45.173" height="45.176" rx="22.587" transform="translate(26.868 14.462)" fill="none" stroke="#1511b1" stroke-linecap="round" stroke-linejoin="round" stroke-width="4"/>
    <g id="Group_3820" data-name="Group 3820">
      <path id="Path_4378" data-name="Path 4378" d="M34.771,28.6H55.524a2.614,2.614,0,0,1,2.589,2.639v2.815" transform="translate(3.012 1.733)" fill="none" stroke="#ff6700" stroke-linecap="round" stroke-linejoin="round" stroke-width="4"/>
      <path id="Path_4379" data-name="Path 4379" d="M39.846,32.528l-5.074-5.265,5.074-5.2" transform="translate(3.012 3.073)" fill="none" stroke="#ff6700" stroke-linecap="round" stroke-linejoin="round" stroke-width="4"/>
      <path id="Path_4380" data-name="Path 4380" d="M58.114,44.09H37.361a2.614,2.614,0,0,1-2.589-2.639V38.636" transform="translate(3.012 -0.325)" fill="none" stroke="#ff6700" stroke-linecap="round" stroke-linejoin="round" stroke-width="4"/>
      <path id="Path_4381" data-name="Path 4381" d="M57.754,38.872l5.074,5.265-5.074,5.2" transform="translate(-1.702 -0.374)" fill="none" stroke="#ff6700" stroke-linecap="round" stroke-linejoin="round" stroke-width="4"/>
    </g>
  </g>
</svg>
