<svg xmlns="http://www.w3.org/2000/svg" width="90.568" height="84.854" viewBox="0 0 90.568 84.854">
  <g id="transactions" transform="translate(-27 -36.932)">
    <g id="Group_3554" data-name="Group 3554" transform="translate(29 80.89)">
      <g id="Group_3558" data-name="Group 3558" transform="translate(0 0)">
        <g id="Group_3823" data-name="Group 3823">
          <path id="Path_4384" data-name="Path 4384" d="M81.354,55.516H73.665V77.292H64.442V55.516H56.753L69.053,38.4Z" transform="translate(5.214 -38.396)" fill="none" stroke="#ddd" stroke-linecap="round" stroke-linejoin="round" stroke-width="4"/>
          <path id="Path_4385" data-name="Path 4385" d="M27.6,55.516H19.912V77.292H10.689V55.516H3L15.3,38.4Z" transform="translate(-3 -38.396)" fill="none" stroke="#ddd" stroke-linecap="round" stroke-linejoin="round" stroke-width="4"/>
          <path id="Path_4386" data-name="Path 4386" d="M53.144,59.492H45.455V50.4H36.232v9.1H28.543l12.3,15.967Z" transform="translate(0.903 -36.562)" fill="none" stroke="#ddd" stroke-linecap="round" stroke-linejoin="round" stroke-width="4"/>
        </g>
      </g>
    </g>
    <path id="Path_4387" data-name="Path 4387" d="M47.081,27.933a5.668,5.668,0,0,1-5.3,3.649V34a.806.806,0,0,1-.8.8H39.367a.805.805,0,0,1-.8-.8V31.592a7.1,7.1,0,0,1-4.342-1.506.813.813,0,0,1-.09-1.23l1.747-1.706a.782.782,0,0,1,.978-.1,3.066,3.066,0,0,0,1.717.527H41.9a1.48,1.48,0,0,0,.416-2.9l-5.144-1.506a5.744,5.744,0,0,1-4.205-4.848,5.5,5.5,0,0,1,5.47-6h.126V9.911a.8.8,0,0,1,.8-.8h1.606a.805.805,0,0,1,.8.8v2.409a7.089,7.089,0,0,1,4.34,1.506.814.814,0,0,1,.091,1.23l-1.747,1.706a.783.783,0,0,1-.979.1,3.066,3.066,0,0,0-1.717-.527H38.439a1.48,1.48,0,0,0-.417,2.9l5.421,1.586A5.51,5.51,0,0,1,47.081,27.933Z" transform="translate(30.576 38.018)" fill="#ff6700"/>
    <g id="Group_3824" data-name="Group 3824" transform="translate(30.153 38.932)">
      <circle id="Ellipse_54" data-name="Ellipse 54" cx="20.604" cy="20.604" r="20.604" transform="translate(19.99)" fill="none" stroke="#1511b1" stroke-linecap="round" stroke-linejoin="round" stroke-width="4"/>
      <g id="Group_3556" data-name="Group 3556" transform="translate(0 5.797)">
        <g id="Group_3559" data-name="Group 3559" transform="translate(0 0)">
          <line id="Line_433" data-name="Line 433" x1="10.725" transform="translate(0 12.062)" fill="none" stroke="#1511b1" stroke-linecap="round" stroke-linejoin="round" stroke-width="4"/>
          <line id="Line_434" data-name="Line 434" x1="5.969" y1="4.035" transform="translate(5.95)" fill="none" stroke="#1511b1" stroke-linecap="round" stroke-linejoin="round" stroke-width="4"/>
          <line id="Line_435" data-name="Line 435" x1="5.969" y2="4.035" transform="translate(5.363 20.579)" fill="none" stroke="#1511b1" stroke-linecap="round" stroke-linejoin="round" stroke-width="4"/>
          <line id="Line_436" data-name="Line 436" x2="10.725" transform="translate(71.472 12.062)" fill="none" stroke="#1511b1" stroke-linecap="round" stroke-linejoin="round" stroke-width="4"/>
          <line id="Line_437" data-name="Line 437" y1="4.035" x2="5.969" transform="translate(70.278)" fill="none" stroke="#1511b1" stroke-linecap="round" stroke-linejoin="round" stroke-width="4"/>
          <line id="Line_438" data-name="Line 438" x2="5.969" y2="4.035" transform="translate(70.865 20.579)" fill="none" stroke="#1511b1" stroke-linecap="round" stroke-linejoin="round" stroke-width="4"/>
        </g>
      </g>
    </g>
  </g>
</svg>
