<svg id="_6e" data-name="6e" xmlns="http://www.w3.org/2000/svg" width="55" height="55" viewBox="0 0 55 55">
  <path id="Path_8481" data-name="Path 8481" d="M0,0H55V55H0Z" fill="navy"/>
  <path id="Path_8482" data-name="Path 8482" d="M189.35,155.712l.07.94v.018h-.191c-.018,0-.018,0-.018-.018l-.035-.383-.122.4a.017.017,0,0,1-.017.017h-.122c-.018,0-.018,0-.018-.017l-.122-.4-.035.383v.018h-.174c-.017,0-.017,0-.017-.018l.07-.94c0-.017,0-.017.017-.017h.174c.017,0,.017,0,.017.017l.157.627.157-.627a.017.017,0,0,1,.017-.017h.174c.017,0,.017,0,.017.017Zm-1.654-.035h.749c.017,0,.017,0,.017.018v.174c0,.017,0,.017-.017.017h-.279v.766c0,.018,0,.018-.017.018h-.174c-.018,0-.018,0-.018-.018v-.766h-.3v-.191A.06.06,0,0,0,187.7,155.677Z" transform="translate(-136.091 -112.896)" fill="#fff"/>
  <g id="Group_7951" data-name="Group 7951" transform="translate(2.489 6.718)">
    <path id="Path_8483" data-name="Path 8483" d="M54.084,155.611a4.921,4.921,0,1,1,4.752-5.03A4.834,4.834,0,0,1,54.084,155.611Zm.174-8.18a3.258,3.258,0,0,0-.157,6.492A3.181,3.181,0,0,0,57.13,150.6,3.1,3.1,0,0,0,54.258,147.43Zm-12.88,8.354a6.983,6.983,0,0,1-6.562-6.962,6.944,6.944,0,0,1,12.253-4.734l-1.288,1.358c-1.967-1.915-3.429-2.054-4.195-2.019a5.067,5.067,0,0,0-4.873,5.343,5.229,5.229,0,0,0,4.786,5.239,4.731,4.731,0,0,0,4.856-4.421H41.709v-1.828H48.34C48.653,153.139,45,155.976,41.378,155.785Zm-32.321-.348V141.669h2v13.767Zm16.483.174a4.929,4.929,0,0,1,.087-9.834,4.378,4.378,0,0,1,1.636.365l.7.348v2l-.3-.331a3.789,3.789,0,0,0-2.158-.731,2.934,2.934,0,0,0-2.785,3.046,3.078,3.078,0,0,0,2.872,3.464,2.994,2.994,0,0,0,2.889-3.307v-8.964h1.81v9.016C30.291,153.174,28.394,155.75,25.539,155.611Zm-7.432-.174v-5c0-2.767-1.358-2.82-2.071-2.889a2.243,2.243,0,0,0-2.21,2.437v5.465H12.085v-5.361a4.028,4.028,0,0,1,4-4.282,4.009,4.009,0,0,1,3.829,4.195v5.43Zm13.35-11.661a1.053,1.053,0,1,1,2.106.017A1.053,1.053,0,1,1,31.457,143.775Zm.226,11.661V145.9h1.828v9.538Z" transform="translate(-9.057 -109.418)" fill="#fff" stroke="#fff" stroke-miterlimit="10" stroke-width="0.633"/>
    <circle id="Ellipse_154" data-name="Ellipse 154" cx="0.783" cy="0.783" r="0.783" transform="translate(33.278 15.125)" fill="#fff"/>
    <circle id="Ellipse_155" data-name="Ellipse 155" cx="0.783" cy="0.783" r="0.783" transform="translate(33.278 13.036)" fill="#fff"/>
    <circle id="Ellipse_156" data-name="Ellipse 156" cx="0.783" cy="0.783" r="0.783" transform="translate(29.101 10.948)" fill="#fff"/>
    <circle id="Ellipse_157" data-name="Ellipse 157" cx="0.783" cy="0.783" r="0.783" transform="translate(31.19 10.948)" fill="#fff"/>
    <circle id="Ellipse_158" data-name="Ellipse 158" cx="0.783" cy="0.783" r="0.783" transform="translate(32.93 2.941)" fill="#fff"/>
    <circle id="Ellipse_159" data-name="Ellipse 159" cx="0.783" cy="0.783" r="0.783" transform="translate(35.019 2.941)" fill="#fff"/>
    <circle id="Ellipse_160" data-name="Ellipse 160" cx="0.783" cy="0.783" r="0.783" transform="translate(37.108 2.941)" fill="#fff"/>
    <circle id="Ellipse_161" data-name="Ellipse 161" cx="0.783" cy="0.783" r="0.783" transform="translate(39.196 2.941)" fill="#fff"/>
    <circle id="Ellipse_162" data-name="Ellipse 162" cx="0.783" cy="0.783" r="0.783" transform="translate(41.285 11.296)" fill="#fff"/>
    <circle id="Ellipse_163" data-name="Ellipse 163" cx="0.783" cy="0.783" r="0.783" transform="translate(41.285 9.155)" fill="#fff"/>
    <circle id="Ellipse_164" data-name="Ellipse 164" cx="0.783" cy="0.783" r="0.783" transform="translate(41.285 7.066)" fill="#fff"/>
    <circle id="Ellipse_165" data-name="Ellipse 165" cx="0.783" cy="0.783" r="0.783" transform="translate(41.285 4.978)" fill="#fff"/>
    <circle id="Ellipse_166" data-name="Ellipse 166" cx="0.783" cy="0.783" r="0.783" transform="translate(33.278 10.948)" fill="#fff"/>
    <circle id="Ellipse_167" data-name="Ellipse 167" cx="0.783" cy="0.783" r="0.783" transform="translate(34.845 9.399)" fill="#fff"/>
    <circle id="Ellipse_168" data-name="Ellipse 168" cx="0.783" cy="0.783" r="0.783" transform="translate(36.237 8.024)" fill="#fff"/>
    <circle id="Ellipse_169" data-name="Ellipse 169" cx="0.783" cy="0.783" r="0.783" transform="translate(37.804 6.457)" fill="#fff"/>
    <circle id="Ellipse_170" data-name="Ellipse 170" cx="0.783" cy="0.783" r="0.783" transform="translate(39.196 4.96)" fill="#fff"/>
    <circle id="Ellipse_171" data-name="Ellipse 171" cx="0.783" cy="0.783" r="0.783" transform="translate(41.285 2.941)" fill="#fff"/>
    <circle id="Ellipse_172" data-name="Ellipse 172" cx="0.783" cy="0.783" r="0.783" transform="translate(42.677 1.479)" fill="#fff"/>
    <circle id="Ellipse_173" data-name="Ellipse 173" cx="0.783" cy="0.783" r="0.783" transform="translate(44.244)" fill="#fff"/>
  </g>
</svg>
