<svg id="ba" xmlns="http://www.w3.org/2000/svg" width="55" height="55" viewBox="0 0 55 55">
  <path id="Path_8484" data-name="Path 8484" d="M0,0H55V55H0Z" fill="#fff" fill-rule="evenodd" opacity="0"/>
  <g id="Group_7952" data-name="Group 7952" transform="translate(0 -0.375)">
    <path id="Path_8485" data-name="Path 8485" d="M17.536,81.784a.584.584,0,0,0,.287-.575V76.095a.637.637,0,0,0-.287-.575H19.95c1.092,0,2.184.46,2.184,1.724a1.4,1.4,0,0,1-1.207,1.264A1.545,1.545,0,0,1,22.651,80c0,1.437-1.437,1.782-2.471,1.782H17.536Zm1.954-5.689h-.4v2.184h.287c.747,0,1.437-.23,1.437-1.092S20.237,76.095,19.49,76.095Zm.173,2.758h-.575v2.3a4.361,4.361,0,0,0,.862.057c.632,0,1.264-.229,1.264-1.207C21.214,79.083,20.467,78.853,19.663,78.853Zm5.4-2.758h-.287v2.184h.287a1.1,1.1,0,0,0,1.207-1.149C26.272,76.382,25.754,76.095,25.065,76.095Zm3.161,5.747a1.691,1.691,0,0,1-.747-.115c-.4-.115-.977-1.034-1.207-1.437-.4-.575-.689-1.437-1.494-1.437v2.356a.583.583,0,0,0,.287.575h-1.9a.584.584,0,0,0,.287-.575V76.095a.637.637,0,0,0-.287-.575h2.3c.977,0,2.184.4,2.184,1.609a1.545,1.545,0,0,1-1.724,1.494c1.265,0,2.069,3.046,3.506,3.046A4.355,4.355,0,0,1,28.226,81.841Zm1.264-.058a.606.606,0,0,0,.345-.575V76.095a.675.675,0,0,0-.345-.575h1.954a.676.676,0,0,0-.345.575v5.114a.606.606,0,0,0,.345.575Zm4.2,0a.707.707,0,0,0,.287-.575V76.267H32.594a2.678,2.678,0,0,0-.977.173l.46-.92h4.54a6.936,6.936,0,0,0,1.092-.058,1.312,1.312,0,0,1-.977.8H35.238v4.942a.632.632,0,0,0,.345.575Zm4.253,0a.606.606,0,0,0,.345-.575V76.095a.675.675,0,0,0-.345-.575h1.954a.675.675,0,0,0-.345.575v5.114a.606.606,0,0,0,.345.575Zm5.69-1.437c0-1.149-2.816-1.437-2.816-3.333,0-1.149,1.092-1.552,2.069-1.552a4.283,4.283,0,0,1,1.494.23l.057,1.207A1.677,1.677,0,0,0,43,75.98c-.46,0-.919.23-.919.747,0,1.207,2.874,1.552,2.874,3.333,0,1.265-1.149,1.839-2.3,1.839a3.783,3.783,0,0,1-1.954-.46c0-.23-.058-.46-.058-.632a3.9,3.9,0,0,1,.115-.8,1.918,1.918,0,0,0,1.782,1.322.967.967,0,0,0,1.092-.978ZM49.6,81.784a.688.688,0,0,0,.287-.575v-2.3a8.944,8.944,0,0,0-1.322-.057,9.373,9.373,0,0,0-1.379.057v2.3a.688.688,0,0,0,.287.575H45.64a.688.688,0,0,0,.287-.575V76.095a.788.788,0,0,0-.287-.575h1.839a.788.788,0,0,0-.287.575v2.126c.345,0,.805.058,1.379.058.518,0,.977-.058,1.322-.058V76.095a.788.788,0,0,0-.287-.575h1.839a.635.635,0,0,0-.287.575v5.114a.574.574,0,0,0,.287.575Zm-29.655,8.1a.3.3,0,0,0,.115-.23.6.6,0,0,1-.058-.23s-.517-1.379-.575-1.551h-2.3c-.058.172-.632,1.551-.632,1.551-.058.173-.115.23-.115.288,0,.115.115.115.173.172H15.295a1.751,1.751,0,0,0,.46-.46l2.011-5.344a.056.056,0,0,0,.058-.057.389.389,0,0,0-.23-.345H19.2l2.069,5.747a1.177,1.177,0,0,0,.46.46H19.95ZM18.283,84.83l-.92,2.414a4.364,4.364,0,0,0,.862.057,5.928,5.928,0,0,0,.977-.057Zm3.735,5.058a.606.606,0,0,0,.345-.575V84.2a.522.522,0,0,0-.345-.518h1.954a.522.522,0,0,0-.345.518v5.115a.606.606,0,0,0,.345.575H22.019ZM26.847,84.2h-.287v2.184h.287a1.073,1.073,0,0,0,1.207-1.149C28.053,84.485,27.536,84.2,26.847,84.2Zm3.333,5.747a3.046,3.046,0,0,1-.747-.057,4.608,4.608,0,0,1-1.264-1.495c-.345-.574-.8-1.436-1.609-1.436v2.356a.584.584,0,0,0,.287.575h-1.9a.585.585,0,0,0,.287-.575V84.2c0-.172-.058-.46-.287-.518h2.3c.977,0,2.184.345,2.184,1.552a1.563,1.563,0,0,1-1.552,1.494c1.322.058,2.126,3.046,3.448,3.046A3.71,3.71,0,0,1,30.18,89.944Zm7.759-5.69-1.9,5.632a.67.67,0,0,1-.4-.115,5.886,5.886,0,0,1-.575-1.207L34.2,86.381l-1.264,3.506h-.575l-2.127-5.632a.916.916,0,0,0-.46-.575h1.839a.3.3,0,0,0-.115.23.345.345,0,0,0,.057.229l1.379,3.736,1.437-4.2L35.984,87.7l1.264-3.678c0-.058.058-.115.058-.173,0-.115-.058-.115-.115-.172H38.4a.917.917,0,0,0-.459.575Zm2.242.575-.919,2.414a4.36,4.36,0,0,0,.862.057,4.959,4.959,0,0,0,.92-.057Zm1.609,5.058c.115-.058.115-.115.115-.23a.572.572,0,0,0-.058-.23s-.46-1.379-.575-1.551H39.03c-.057.172-.632,1.551-.632,1.551-.058.173-.115.23-.115.288,0,.115.115.115.172.172H37.191a1.021,1.021,0,0,0,.4-.46l2.069-5.344.058-.057a.389.389,0,0,0-.23-.345H41.1l2.069,5.747a1.176,1.176,0,0,0,.46.46h-1.84Zm5.633-5.575L45.985,86.9v2.414a.666.666,0,0,0,.23.575H44.433a.668.668,0,0,0,.23-.575V86.9L43.4,84.83c-.115-.172-.632-1.092-1.322-1.092a4.8,4.8,0,0,1,1.092-.173c.632,0,.92.058,1.265.632l1.207,1.9c.115-.173,1.035-1.839,1.035-1.839a1,1,0,0,0,.173-.4c0-.057,0-.115-.115-.172h1.322a2.21,2.21,0,0,0-.632.632Zm3.448,4.138c0-1.149-2.759-1.437-2.759-3.333,0-1.149,1.092-1.552,2.069-1.552a4.3,4.3,0,0,1,1.495.23L51.731,85a1.678,1.678,0,0,0-1.437-.919c-.46,0-.919.229-.919.747,0,1.207,2.816,1.552,2.816,3.333C52.191,89.485,51.1,90,49.95,90A3.775,3.775,0,0,1,48,89.542c0-.229-.058-.4-.058-.632,0-.287.058-.518.058-.747a2.074,2.074,0,0,0,1.782,1.264c.632,0,1.092-.287,1.092-.977ZM67.709,71.21a15.353,15.353,0,0,1-4.483,2.356c-1.552.575-2.242.8-3.1,1.092-.977.287-2.931.92-2.931.92a45.52,45.52,0,0,0,6.9,1.552,20.946,20.946,0,0,0,3.448-1.552,7.482,7.482,0,0,0,2.069-1.322,1.605,1.605,0,0,0,.632-1.034c0-.057.057-.115.057-.23v-.115a.178.178,0,0,1-.057-.115.569.569,0,0,0-.058-.23.962.962,0,0,0-.345-.517,3.406,3.406,0,0,0-1.265-.69,6.8,6.8,0,0,0-.8-.23Z" transform="translate(-15.295 -51.378)" fill="#2c4a7c" fill-rule="evenodd"/>
    <path id="Path_8486" data-name="Path 8486" d="M106.493,66.01a.285.285,0,0,0-.057-.173c0-.115-.058-.173-.115-.287a2.214,2.214,0,0,1-.287-.345,1.515,1.515,0,0,1-.345-.287,5.679,5.679,0,0,0-1.9-.632,21.785,21.785,0,0,0-2.241-.115c-.345,0-2.7,0-3.275.057-2.644.058-5.92.058-6.782.058-8.793,0-12.643-.173-16.9-1.034a45.38,45.38,0,0,1-5.632-1.379c3.218-.115,21.9-.92,25.287-.977a48.51,48.51,0,0,1,5.058,0,8.313,8.313,0,0,1,2.012.23,11.863,11.863,0,0,1,1.666.4,3.632,3.632,0,0,1,1.724,1.149.685.685,0,0,1,.229.23,2.557,2.557,0,0,0,.345.517,10.116,10.116,0,0,1,.747,1.322,2.054,2.054,0,0,1,.23.517.372.372,0,0,1,.115.287c.058.173.058.345.115.4Z" transform="translate(-51.493 -44.454)" fill="#c82e37" fill-rule="evenodd"/>
  </g>
</svg>
