<svg id="bg" xmlns="http://www.w3.org/2000/svg" width="55" height="55" viewBox="0 0 55 55">
  <path id="Path_8484" data-name="Path 8484" d="M0,0H55V55H0Z" fill="#fff" fill-rule="evenodd" opacity="0"/>
  <path id="Path_8487" data-name="Path 8487" d="M7.9,8.127a27.751,27.751,0,0,1,8.73-5.992A27.234,27.234,0,0,1,27.294,0,26.962,26.962,0,0,1,37.825,2.143,28.186,28.186,0,0,1,46.69,8.135a26.206,26.206,0,0,1,5.683,8.722,27.868,27.868,0,0,1,2.079,10.7,28.669,28.669,0,0,1-2.079,10.7,27.245,27.245,0,0,1-5.683,8.722,26.232,26.232,0,0,1-8.865,5.881,27.284,27.284,0,0,1-21.2,0A25.628,25.628,0,0,1,7.9,46.976a25.342,25.342,0,0,1-5.817-8.722A28.74,28.74,0,0,1,0,27.548a27.868,27.868,0,0,1,2.079-10.7A24.409,24.409,0,0,1,7.9,8.127Zm25.77,18.508,2.77,2.675a2.338,2.338,0,0,0,3.048,0l6.238-4.175-1.659-1.5h8.865L39.762,33.056c-1.659.9-2.77,1.016-3.738.214-1.111-.8-1.659-1.286-1.659-1.175-.833-1.175-2.079-1.341-3.6-.54L22.587,37.6H8.04L21.9,27.175l-20.23.111L4.436,24.6H30.071c1.381-.159,2.492.54,3.6,2.032Z" transform="translate(0.274 0)" fill="#e1241a"/>
  <path id="Path_8488" data-name="Path 8488" d="M53,300.8l2.77,2.675a2.338,2.338,0,0,0,3.048,0l6.238-4.175L63.4,297.8h8.865L59.1,307.221c-1.659.9-2.77,1.016-3.738.214-1.111-.8-1.659-1.286-1.659-1.175-.833-1.175-2.079-1.341-3.6-.54l-8.175,6.048H27.373L41.23,301.34,21,301.451l2.77-2.683H49.4c1.381-.159,2.492.54,3.6,2.032Z" transform="translate(-19.06 -274.166)" fill="#fff"/>
</svg>
