<svg xmlns="http://www.w3.org/2000/svg" width="55" height="55" viewBox="0 0 55 55">
  <g id="ek" transform="translate(2033 -4467)">
    <rect id="Rectangle_1377" data-name="Rectangle 1377" width="55" height="55" transform="translate(-2033 4467)" fill="#fff" opacity="0"/>
    <g id="Group_7936" data-name="Group 7936" transform="translate(33.677 2.688)">
      <path id="Path_8449" data-name="Path 8449" d="M96.921,36.309a3.367,3.367,0,0,0-.7,2.019c0,.246,0,6.136,0,6.347a2.372,2.372,0,0,1-.508,1.312c-.159.159-1.136,1.047-1.222,1.14l.554.009c.18-.172,2.062-1.84,2.259-2.064a3.253,3.253,0,0,0,.866-2.186l0-6.1a2.355,2.355,0,0,1,.646-1.668c.226-.252.967-.87,1.1-1.01l-.581-.017C99.191,34.233,97.115,36.107,96.921,36.309ZM92.263,59.388l2.3,2.013H96.11a5.662,5.662,0,0,0,3.948-1.617,4.743,4.743,0,0,0,1.3-3.408v-3.3a2.676,2.676,0,0,0-.89-1.947c-.106-.105-.777-.738-.777-.738v2.531s.739.764.886.918c.683.726.676,2.048-1.488,4.157a4.386,4.386,0,0,1-2.948,1.39H92.263Z" transform="translate(-2132.727 4439.238)" fill="#c23c40" fill-rule="evenodd"/>
      <path id="Path_8450" data-name="Path 8450" d="M80.138,63.31a2.541,2.541,0,0,0-.5,1.522v1.249H80.9a1.935,1.935,0,0,0,1.283-.686c.008-.018,0-1.239,0-1.239a3.4,3.4,0,0,0,.677.712c.132-.167,1.285-1.565,2.251-1.573,1.612-.013,1.248,2.021.589,2.672-.213.209-1.166,1.083-1.46,1.363-.762.725-2.065.378-2.065-1.5,0,0-1.4,1.328-1.609,1.5s-.933.94-.933.94v3.292a3.193,3.193,0,0,1-.95,2.583c-.167.184-1.945,1.806-2.183,1.982l-.581.013s1.04-.946,1.249-1.162a2.234,2.234,0,0,0,.514-1.579c0-.211-.026-5.172-.026-5.172H69.573c-2.812,0-3.414-3.121-3.431-3.956,0-.246,0-2.739,0-3.126a2.087,2.087,0,0,0-.852-1.645h.793c.091.038.59.239.59,2.153,0,0-.034,2.227-.034,2.346a2.059,2.059,0,0,0,1.886,2.083l9.152-.009a3.566,3.566,0,0,1,.694-1.673c.25-.278,2.213-2.074,2.437-2.247l.581-.007C81.3,62.235,80.351,63.087,80.138,63.31Zm3,1.875a7.792,7.792,0,0,0,.782.905c.986.791,1.454-.059.792-.967C84.456,64.765,83.442,64.868,83.143,65.185Z" transform="translate(-2114.195 4421.776)" fill="#c23c40" fill-rule="evenodd"/>
      <path id="Path_8451" data-name="Path 8451" d="M78.755,53.578c0,.442-1.412,1.615-1.494,1.7-.1-.476-.458-1-1.51-2.054L77.3,51.676C78.33,52.712,78.755,52.933,78.755,53.578Zm2.679-17.706c.31.31.977,1.15.576,1.551-.353.354-.9.914-.9.914-.028-.2-.541-.689-.541-.689s0,1.492,0,1.676c-.018.673-.271.866-.271.866a4.486,4.486,0,0,1,1.245,2.821c0,.769,0,1.477,0,1.629a1.131,1.131,0,0,1-.309.826c-.112.124-1.266,1.283-1.441,1.441a1.353,1.353,0,0,1-.949.351h-4.29c-.676,0-1.371-.527-1.371-1.055,0-.132.009-1.591.009-1.591a1.158,1.158,0,0,0,.985.545,1.714,1.714,0,0,0,.985-.457c.123-.124,3.245-3.388,3.245-3.388a26.322,26.322,0,0,0-2.426-2,.829.829,0,0,0-1.189.5,10.887,10.887,0,0,0,0,3.246l-1.184-1.182a1.647,1.647,0,0,1,.109-2.127,3.145,3.145,0,0,1,2.055-1.069h1.713a4.493,4.493,0,0,1,2.406,1.145.725.725,0,0,0,.185-.4c0-.589-.022-2.177-.022-2.177-.865-.864-.982-1.757-.568-2.171.774-.773,1.055-1.046,1.055-1.046a2.8,2.8,0,0,0,.893,1.839Zm-5.382,8.62a3.481,3.481,0,0,1-.892.791h4.832c1.309,0,1.049-.813.814-1.223a18.413,18.413,0,0,0-2-2.4S76.14,44.4,76.052,44.491Z" transform="translate(-2119.619 4439.28)" fill="#c23c40" fill-rule="evenodd"/>
      <path id="Path_8452" data-name="Path 8452" d="M63,81.506h-.793a1.9,1.9,0,0,1,.852,1.675v3.856a4.828,4.828,0,0,0,4.585,4.83h2.1a3.031,3.031,0,0,0,2.466-.982c.279-.248.643-.656.776-.8a2.667,2.667,0,0,0,.907-2.182V86.637a2.317,2.317,0,0,0-.937-1.85c-.2-.2-.733-.709-.733-.709v2.585s.53.564.763.747a1.332,1.332,0,0,1-.789,2.356c-.2,0-4.332,0-4.613.008a4.083,4.083,0,0,1-3.995-4.021v-2.1C63.59,81.506,63,81.506,63,81.506Z" transform="translate(-2112.077 4406.663)" fill="#c23c40" fill-rule="evenodd"/>
      <path id="Path_8453" data-name="Path 8453" d="M31.158,92.336c0,.44-1.412,1.615-1.494,1.7-.1-.476-.458-1-1.511-2.054L29.7,90.434C30.734,91.47,31.158,91.69,31.158,92.336ZM15.007,109.485l-2.471,0c-.779,0-.72-.647-.788-1.2v-3.545s.541-.013,1.154-.013a4.394,4.394,0,0,1,2.366.368,2.553,2.553,0,0,0-2.371-1.438H11.749v-1.136a3.02,3.02,0,0,0-.242-1.282l1.632.006a5.926,5.926,0,0,1,3.641.736s-.217-1.87-2.946-1.87H8.5a3.173,3.173,0,0,1,.9,2.4l.026,6.46c0,1.622.649,1.666.649,1.666h5.254a1.451,1.451,0,0,0,1.605-1.313l.018-.619S16.576,109.485,15.007,109.485Zm13.985-.546V104.42a2.215,2.215,0,0,0-2.5-2.219,2.159,2.159,0,0,0-2.016,1.585,2.364,2.364,0,0,0-2.319-1.6,2.247,2.247,0,0,0-2.139,1.624s-.04-1.569-1.41-1.569l-1.343,0s.778.32.778,1.676l0,5.017c0,1.657.668,1.686.668,1.686h2.213a2.148,2.148,0,0,1-.849-1.7v-4.451a1.256,1.256,0,0,1,1.316-.87,1.227,1.227,0,0,1,1.122,1.2l0,4.135c0,1.681.659,1.686.659,1.686h2.221a2.2,2.2,0,0,1-.849-1.7l-.007-4.452a1.246,1.246,0,0,1,2.428.345s0,3.775,0,4.125c.01,1.692.659,1.676.659,1.676,1.157,0,2.221,0,2.221,0A2.157,2.157,0,0,1,28.993,108.939Zm3.881,0a2.127,2.127,0,0,0,.852,1.686s-1.056,0-2.213,0c0,0-.679.01-.679-1.669v-.008l0-5.032c0-1.327-.769-1.668-.769-1.668h1.343c.473,0,1.459,0,1.459,1.876l0,4.81.008.008Zm6.817-6.062a1.108,1.108,0,0,0-1.133-.6c-1.39,0-1.728,1.651-1.728,1.651-.113-1.305-.463-1.691-1.444-1.691l-1.343,0s.778.319.778,1.675l0,5.024c0,1.658.668,1.685.668,1.685H37.7a2.142,2.142,0,0,1-.849-1.7l0-4.113a1.2,1.2,0,0,1,.543-.849,1.742,1.742,0,0,1,2.3.336Zm10.325.3a2.838,2.838,0,0,1,1.309.327l.007-1.264H49.471v-1.917a6.888,6.888,0,0,1-1.49,1.668,12.843,12.843,0,0,1-1.948,1.154l1.405.025,0,5.83c0,1.617.676,1.617.676,1.617,1.214,0,2.21,0,2.21,0a2.091,2.091,0,0,1-.854-1.636l0-5.812C50.054,103.178,49.652,103.179,50.017,103.179Zm6.728,2.531c-1.241,1.3-2.216,1.095-3,2.046A2.3,2.3,0,0,0,54.86,109.5a1.916,1.916,0,0,0,2.589-.879l-.006,1.352s-.568.66-2.372.66a3.71,3.71,0,0,1-3.663-4.028c0-2.279,1.214-4.4,3.506-4.408,2.246-.012,3.463,1.8,1.831,3.511Zm-1.359-.532c.367-.679.657-2.4-.6-2.308-1.455.109-1.178,3.977-1.178,3.977.487-.529,1.216-.636,1.777-1.669Zm-23.54-3.613a1.011,1.011,0,1,0-1.033-1.01A1.022,1.022,0,0,0,31.846,101.565ZM42,109.673a.992.992,0,0,1-.866-1.063c0-2.092,1.713-2.381,2.171-2.939l0,3.527A1.516,1.516,0,0,1,42,109.673Zm1.3-4.81c-.515.9-4.519,1.093-3.905,4.19a1.85,1.85,0,0,0,2.09,1.586,2,2,0,0,0,1.853-1.008c.149.933.62.986.62.986,1.157,0,2.213,0,2.213,0a2.117,2.117,0,0,1-.862-1.678v-4.709c0-1.126-1.249-2-2.576-2a3.647,3.647,0,0,0-2.078.614v1.461a1.86,1.86,0,0,1,1.609-1.158c1.127,0,1.21.561,1.2.841A1.183,1.183,0,0,1,43.3,104.863Zm18.342,3.485A1.485,1.485,0,0,1,60,109.718a1.88,1.88,0,0,1-1.615-1.181v1.5a3.9,3.9,0,0,0,2.108.593,2.908,2.908,0,0,0,3.01-2.752,2.484,2.484,0,0,0-.519-1.458,7.66,7.66,0,0,0-2.167-1.611,1.4,1.4,0,0,1-.636-.867c-.012-.28.124-.847,1.251-.847A1.866,1.866,0,0,1,63,104.25l0-1.4a3.658,3.658,0,0,0-2.117-.668,2.309,2.309,0,0,0-2.51,2,2.652,2.652,0,0,0,1.246,2.233,10.275,10.275,0,0,0,1.142.715,1.442,1.442,0,0,1,.888,1.217Z" transform="translate(-2075.179 4400.528)" fill="#c23c40" fill-rule="evenodd"/>
    </g>
  </g>
</svg>
