<svg xmlns="http://www.w3.org/2000/svg" width="55.237" height="55" viewBox="0 0 55.237 55">
  <g id="et" transform="translate(2033 -4467)">
    <rect id="Rectangle_1377" data-name="Rectangle 1377" width="55" height="55" transform="translate(-2033 4467)" fill="#fff" opacity="0"/>
    <g id="Group_7939" data-name="Group 7939" transform="translate(-212.599 -79)">
      <path id="Path_8465" data-name="Path 8465" d="M226.684,397.688a2.9,2.9,0,0,0-.865.113c-4.033,1.2-18.71,6.231-35.993,8.637-.77.1-.571.467.346.519,11.553,1.09,15.915,1.212,21.212,1.16,5.08-.164,8.879.537,13.154-4C228.475,400.051,228.536,397.706,226.684,397.688Z" transform="translate(-2006.094 4187.726)" fill="#c8332f"/>
      <path id="Path_8466" data-name="Path 8466" d="M1840.607,255.525c11.813-3,41.385-18.9,45.772-21.722,2.164-1.35,4.552-.545.736,5.677-2.6,3.825-4.388,6.049-11.337,8.152-4.769,1.809-22.475,6.958-34.877,8.455-.917.087-1.211-.251-.294-.562" transform="translate(-3660.45 4337.937)" fill="#ffcb08"/>
      <path id="Path_8467" data-name="Path 8467" d="M1844.143,41.678c10.307-3.617,32.748-15.431,40.4-20.121,5.5-3.349,9.762-5.824,11.423-10.022,3.557-9.589.831-13.5-2.544-10.5-4.31,4.189-24.6,25.478-50.575,40.441-.389.216-.441.736,1.3.2" transform="translate(-3662.8 4550.953)" fill="#5e8f4d"/>
    </g>
  </g>
</svg>
