<svg xmlns="http://www.w3.org/2000/svg" width="55" height="55" viewBox="0 0 55 55">
  <g id="g9" transform="translate(2033 -4467)">
    <rect id="Rectangle_1377" data-name="Rectangle 1377" width="55" height="55" transform="translate(-2033 4467)" fill="#fff" opacity="0"/>
    <path id="air-arabia-logo" d="M42.693,6.3a2.108,2.108,0,0,1-.352.615,1.342,1.342,0,0,1-.615.41,2.5,2.5,0,0,1-.879.147,3.565,3.565,0,0,1-.615-.029,2.612,2.612,0,0,0-.322-.059V5.245A1.774,1.774,0,0,1,40.261,4.1a1.288,1.288,0,0,1,1.055-.469,1.269,1.269,0,0,1,1.084.527,2.162,2.162,0,0,1,.381,1.348,1.786,1.786,0,0,1-.088.791m1-3.282a2.313,2.313,0,0,0-.908-.586A2.744,2.744,0,0,0,41.7,2.227a1.831,1.831,0,0,0-.733.117,3.176,3.176,0,0,0-.557.234,1.827,1.827,0,0,0-.352.264c-.088.088-.117.147-.147.147V.147l-1.7.5v7.97c.059,0,.147.029.293.029.147.029.322.029.527.059s.44.029.7.059a7.677,7.677,0,0,0,.82.029,4.164,4.164,0,0,0,2.96-.908,3.335,3.335,0,0,0,1-2.579,3.65,3.65,0,0,0-.234-1.319,2.058,2.058,0,0,0-.586-.967M35.045,5.8a1.774,1.774,0,0,1-.352,1.143,1.288,1.288,0,0,1-1.055.469,1.269,1.269,0,0,1-1.084-.527,2.162,2.162,0,0,1-.381-1.348,2.416,2.416,0,0,1,.117-.82,2.108,2.108,0,0,1,.352-.615,1.342,1.342,0,0,1,.615-.41,2.5,2.5,0,0,1,.879-.147,3.565,3.565,0,0,1,.615.029,2.612,2.612,0,0,0,.322.059V5.8ZM35.9,2.52c-.234-.059-.527-.117-.85-.176a7.075,7.075,0,0,0-1.172-.088,4.653,4.653,0,0,0-1.465.234,3.1,3.1,0,0,0-1.787,1.787,4.518,4.518,0,0,0-.234,1.465,3.651,3.651,0,0,0,.234,1.319,2.735,2.735,0,0,0,.615.967,2.313,2.313,0,0,0,.908.586,3.416,3.416,0,0,0,1.113.205A1.924,1.924,0,0,0,33.99,8.7a3.175,3.175,0,0,0,.557-.234A1.826,1.826,0,0,0,34.9,8.2c.088-.088.147-.147.147-.176v.586h1.7V2.872c-.029-.029-.117-.059-.264-.147A2.26,2.26,0,0,0,35.9,2.52m-5.509-.029a2.613,2.613,0,0,0-.762-.234A4.792,4.792,0,0,0,28.98,2.2a5.575,5.575,0,0,0-1.026.088,4.627,4.627,0,0,0-.82.234c-.234.088-.44.176-.586.234a1.329,1.329,0,0,1-.264.147V8.556h1.7V3.868c.059-.029.205-.088.381-.176a2.5,2.5,0,0,1,.791-.117,1.427,1.427,0,0,1,.352.029c.117.029.234.029.352.059h.029c.176-.41.322-.791.5-1.2-.029.059,0,.029,0,.029M53.271,5.8a1.773,1.773,0,0,1-.352,1.143,1.288,1.288,0,0,1-1.055.469,1.269,1.269,0,0,1-1.084-.527A2.162,2.162,0,0,1,50.4,5.538a2.416,2.416,0,0,1,.117-.82,2.108,2.108,0,0,1,.352-.615,1.342,1.342,0,0,1,.615-.41,2.5,2.5,0,0,1,.879-.147,3.566,3.566,0,0,1,.615.029,2.612,2.612,0,0,0,.322.059Zm1.436-3.077a3.825,3.825,0,0,0-.557-.205c-.234-.059-.527-.117-.85-.176a7.075,7.075,0,0,0-1.172-.088,4.653,4.653,0,0,0-1.465.234,3.1,3.1,0,0,0-1.787,1.787,4.518,4.518,0,0,0-.234,1.465,3.651,3.651,0,0,0,.234,1.319,2.735,2.735,0,0,0,.615.967,2.313,2.313,0,0,0,.908.586,3.416,3.416,0,0,0,1.113.205,1.924,1.924,0,0,0,.733-.117,3.175,3.175,0,0,0,.557-.234,1.826,1.826,0,0,0,.352-.264c.088-.088.147-.147.147-.176v.586H55V2.872a2.612,2.612,0,0,0-.293-.147M46.62,0a.978.978,0,0,0-.674.264.888.888,0,0,0,0,1.319.993.993,0,0,0,1.348,0,.928.928,0,0,0,.264-.674.862.862,0,0,0-.264-.645A.928.928,0,0,0,46.62,0M45.8,8.615h1.7V2.256l-1.7.5ZM19.574,5.157c.147-.381.293-.791.44-1.172.147-.41.293-.762.41-1.084.117-.293.234-.586.322-.85.088-.234.176-.41.205-.5.029.088.117.234.205.5.117.293.234.557.322.85l.41,1.084c.147.41.293.791.44,1.172Zm4.688.293c-.205-.527-.41-1.026-.615-1.524-.176-.44-.381-.908-.557-1.377-.147-.381-.293-.733-.469-1.084-.117-.234-.205-.5-.322-.733-.176-.41-.264-.586-.264-.586H19.867s-.088.176-.264.586a5.534,5.534,0,0,0-.322.733c-.147.352-.322.733-.469,1.084-.176.41-.352.879-.557,1.377s-.41,1.026-.615,1.524c-.205.527-.41,1.055-.615,1.612-.205.527-.381,1.055-.557,1.553h1.787l.7-1.875h3.985l.7,1.875h1.787c-.176-.527-.381-1.055-.586-1.553-.176-.557-.381-1.084-.586-1.612M10.725,0a.978.978,0,0,0-.674.264.862.862,0,0,0-.264.645.978.978,0,0,0,.264.674.978.978,0,0,0,.674.264.928.928,0,0,0,.674-.264.928.928,0,0,0,.264-.674A.862.862,0,0,0,11.4.264.928.928,0,0,0,10.725,0m-.85,8.615h1.7V2.256l-1.7.5Zm-6.8-3.458c.147-.381.293-.791.44-1.172.147-.41.293-.762.41-1.084s.234-.615.322-.85.176-.41.205-.5c.029.088.117.234.205.5.117.293.234.557.322.85.117.322.264.7.41,1.084.147.41.293.791.44,1.172Zm4.688.293c-.205-.527-.41-1.026-.615-1.524s-.381-.938-.557-1.377c-.147-.352-.293-.733-.44-1.084-.117-.234-.205-.5-.322-.733C5.743.527,5.655.352,5.567.147H3.4s-.088.176-.264.586c-.088.176-.176.41-.322.733-.176.352-.322.733-.469,1.084-.176.41-.352.879-.557,1.377s-.41,1.026-.615,1.524C.967,5.978.762,6.505.557,7.062.352,7.589.176,8.117,0,8.615H1.787l.7-1.875H6.476l.7,1.875H8.966c-.176-.527-.381-1.055-.557-1.553-.234-.557-.44-1.084-.645-1.612M16.79,3.721c.176-.41.352-.82.5-1.2a.029.029,0,0,1,.029-.029,2.613,2.613,0,0,0-.762-.234,4.792,4.792,0,0,0-.645-.059,5.575,5.575,0,0,0-1.026.088,4.627,4.627,0,0,0-.82.234c-.234.088-.44.176-.586.234a1.329,1.329,0,0,1-.264.147V8.556h1.7V3.868c.059-.029.205-.088.381-.176a2.5,2.5,0,0,1,.791-.117,1.427,1.427,0,0,1,.352.029c.117.029.234.029.352.059-.029.059-.029.059,0,.059M32.672,15.677a1.519,1.519,0,0,1-.293.967,1.038,1.038,0,0,1-.879.381,1.115,1.115,0,0,1-.938-.44,1.763,1.763,0,0,1-.322-1.143,2.72,2.72,0,0,1,.088-.7,1.362,1.362,0,0,1,.791-.879,1.924,1.924,0,0,1,.733-.117,2.849,2.849,0,0,1,.527.029c.147.029.234.029.264.059Zm9.377-2.96-1.436.41v3.809h-1.67a.978.978,0,0,1-.44-.088.517.517,0,0,1-.264-.234,1.17,1.17,0,0,1-.117-.381,3.013,3.013,0,0,1-.029-.5V12.717l-1.436.41v2.637a2.526,2.526,0,0,1-.029.5,1.45,1.45,0,0,1-.117.381.692.692,0,0,1-.264.234.978.978,0,0,1-.44.088h-1.67v-3.78a1.63,1.63,0,0,0-.234-.117,2.672,2.672,0,0,0-.469-.176,4.029,4.029,0,0,0-.733-.147,5.206,5.206,0,0,0-1-.059,3.189,3.189,0,0,0-1.231.205,2.819,2.819,0,0,0-.938.586,2.693,2.693,0,0,0-.586.908,3.289,3.289,0,0,0-.205,1.231,2.7,2.7,0,0,0,.205,1.113,2.2,2.2,0,0,0,.527.82,2.292,2.292,0,0,0,.762.5,2.538,2.538,0,0,0,.938.176,1.948,1.948,0,0,0,.615-.088,2.268,2.268,0,0,0,.469-.205c.117-.088.234-.147.293-.205s.117-.117.117-.147v.586H36.1a2.2,2.2,0,0,0,.762-.147,1.139,1.139,0,0,0,.557-.557,1.222,1.222,0,0,0,.527.557,1.77,1.77,0,0,0,.7.147h3.37Zm-4.6,5.948a.75.75,0,0,0-.557.234.8.8,0,0,0-.234.557.75.75,0,0,0,.234.557.8.8,0,0,0,.557.234.871.871,0,0,0,.586-.234.8.8,0,0,0,.234-.557.75.75,0,0,0-.234-.557.931.931,0,0,0-.586-.234M18.665,17a3.227,3.227,0,0,1-1.377-.029v-2.96a1.711,1.711,0,0,1,1.26-.264c.7.147,1.172.674,1.172,1.7A1.489,1.489,0,0,1,18.665,17m7.208-.029h-.967a.979.979,0,0,1-.44-.088.517.517,0,0,1-.264-.234,1.17,1.17,0,0,1-.117-.381,2.681,2.681,0,0,1-.029-.5V10.754l-1.436.41v4.6a2.526,2.526,0,0,1-.029.5,1.45,1.45,0,0,1-.117.381.692.692,0,0,1-.264.234.979.979,0,0,1-.44.088H20.8a3.122,3.122,0,0,0,.352-1.553,2.5,2.5,0,0,0-2.227-2.725,3.661,3.661,0,0,0-1.7.264v-2.2l-1.407.41v5.773h-.586a.979.979,0,0,1-.44-.088.517.517,0,0,1-.264-.234,1.17,1.17,0,0,1-.117-.381,3.014,3.014,0,0,1-.029-.5V12.717l-1.436.41v2.637a2.527,2.527,0,0,1-.029.5,1.451,1.451,0,0,1-.117.381.692.692,0,0,1-.264.234.979.979,0,0,1-.44.088h-1.67V12.717L9,13.127v4.981a.777.777,0,0,1-.234.645.961.961,0,0,1-.615.176,2.922,2.922,0,0,1-.469-.059.641.641,0,0,1-.264-.088l-.352.967a1.232,1.232,0,0,0,.147.059c.088.029.176.059.293.088s.264.059.41.088a2.52,2.52,0,0,0,.469.029,3.194,3.194,0,0,0,.762-.088,1.4,1.4,0,0,0,.645-.352,1.788,1.788,0,0,0,.44-.645,2.428,2.428,0,0,0,.176-1v.234h1.993a2.2,2.2,0,0,0,.762-.147,1.139,1.139,0,0,0,.557-.557,1.222,1.222,0,0,0,.527.557,1.77,1.77,0,0,0,.7.147h7.15a2.2,2.2,0,0,0,.762-.147,1.139,1.139,0,0,0,.557-.557,1.222,1.222,0,0,0,.527.557,1.77,1.77,0,0,0,.7.147H27.31V10.754l-1.436.41Zm9.406,1.7a.75.75,0,0,0-.557.234.8.8,0,0,0-.234.557.75.75,0,0,0,.234.557.8.8,0,0,0,.557.234.871.871,0,0,0,.586-.234.8.8,0,0,0,.234-.557.75.75,0,0,0-.234-.557.871.871,0,0,0-.586-.234m4.307,0A.871.871,0,0,0,39,18.9a.8.8,0,0,0-.234.557.75.75,0,0,0,.234.557.818.818,0,0,0,.586.234.75.75,0,0,0,.557-.234.8.8,0,0,0,.234-.557.8.8,0,0,0-.791-.791m13.948-7.472v6.974h1.436V10.754Zm-2.549,5.069a.777.777,0,0,1-.234.645.961.961,0,0,1-.615.176H47.645c-.059-.059-.117-.088-.176-.147a1.6,1.6,0,0,1-.322-.527,1.984,1.984,0,0,1-.117-.762,1.942,1.942,0,0,1,.41-1.289,1.318,1.318,0,0,1,1.084-.44,1.419,1.419,0,0,1,.527.088c.147.059.293.117.41.176l.557-1.084a1.733,1.733,0,0,0-.527-.264,3.516,3.516,0,0,0-1.113-.147,2.888,2.888,0,0,0-1.113.205,2.571,2.571,0,0,0-.879.586,2.613,2.613,0,0,0-.615.938,3.288,3.288,0,0,0-.234,1.231,3.331,3.331,0,0,0,.234,1.26l.088.176H44.539V12.717l-1.436.41v4.981a.777.777,0,0,1-.234.645.961.961,0,0,1-.615.176,2.262,2.262,0,0,1-.44-.059l-.264-.088-.352.967a1.232,1.232,0,0,0,.147.059c.088.029.176.059.293.088s.264.059.41.088a2.52,2.52,0,0,0,.469.029,3.194,3.194,0,0,0,.762-.088,1.4,1.4,0,0,0,.645-.352,1.788,1.788,0,0,0,.44-.645,2.428,2.428,0,0,0,.176-1v.234H50.4a3.194,3.194,0,0,0,.762-.088,1.4,1.4,0,0,0,.645-.352,2.087,2.087,0,0,0,.44-.645,2.526,2.526,0,0,0,.176-1V10.754l-1.436.41ZM32.643,12.131a.871.871,0,0,0,.586-.234.8.8,0,0,0,.234-.557.75.75,0,0,0-.234-.557.818.818,0,0,0-.586-.234.75.75,0,0,0-.557.234.8.8,0,0,0-.234.557.75.75,0,0,0,.234.557.693.693,0,0,0,.557.234M2.7,12.278a.871.871,0,0,0,.586-.234.8.8,0,0,0,.234-.557.75.75,0,0,0-.234-.557A.818.818,0,0,0,2.7,10.7a.75.75,0,0,0-.557.234.8.8,0,0,0-.234.557.75.75,0,0,0,.234.557.75.75,0,0,0,.557.234M30.5,12.131a.871.871,0,0,0,.586-.234.8.8,0,0,0,.234-.557.75.75,0,0,0-.234-.557.818.818,0,0,0-.586-.234.75.75,0,0,0-.557.234.8.8,0,0,0-.234.557.75.75,0,0,0,.234.557.657.657,0,0,0,.557.234M3.956,15.091c0,.908,0,1.963-1.26,1.963s-1.26-1.026-1.26-1.963V13.86L0,14.27v.908a3.7,3.7,0,0,0,.234,1.348,2.988,2.988,0,0,0,.586,1,1.97,1.97,0,0,0,.879.557,3.065,3.065,0,0,0,1.055.176,3.721,3.721,0,0,0,1-.147,1.984,1.984,0,0,0,.85-.527,2.582,2.582,0,0,0,.586-.967,4.443,4.443,0,0,0,.234-1.494V12.746l-1.436.41Zm9.787,3.575a.75.75,0,0,0-.557.234.8.8,0,0,0-.234.557.75.75,0,0,0,.234.557.8.8,0,0,0,.557.234.871.871,0,0,0,.586-.234.8.8,0,0,0,.234-.557.75.75,0,0,0-.234-.557.871.871,0,0,0-.586-.234M7.912,10.754l-1.436.41v7H7.912Zm3.663,7.912a.75.75,0,0,0-.557.234.8.8,0,0,0-.234.557.75.75,0,0,0,.234.557.8.8,0,0,0,.557.234.871.871,0,0,0,.586-.234.8.8,0,0,0,.234-.557.75.75,0,0,0-.234-.557.818.818,0,0,0-.586-.234" transform="translate(-2033 4484)" fill="#e81142"/>
  </g>
</svg>
