<svg xmlns="http://www.w3.org/2000/svg" width="55" height="54.976" viewBox="0 0 55 54.976">
  <g id="Globe_1_" transform="translate(-392.932 -6.363)">
    <path id="Globe" d="M447.932,6.363V61.33H436.54a36.128,36.128,0,0,0-41.416-47.853l-2.19.539V6.363Zm-39.859,8.618c-2.926-1.616-6.771-1.852-10.217-1.261l1.215.139.172-.086a16.954,16.954,0,0,1,4.771.267,19.234,19.234,0,0,0-1.917.651,6.092,6.092,0,0,1,1.05.527,23.93,23.93,0,0,1,2.608-.712,12.677,12.677,0,0,1,2.986,1.531,34.221,34.221,0,0,0-3.782.61,4.317,4.317,0,0,1,.738.861,33.734,33.734,0,0,1,4.337-.463,7.561,7.561,0,0,1,1.766,2.222,33.889,33.889,0,0,0-5.085.062,5.735,5.735,0,0,1,.4,1.2,38.807,38.807,0,0,1,5.424.214,9.412,9.412,0,0,1,.663,2.828,43.134,43.134,0,0,0-5.788-.761,12.09,12.09,0,0,1-.055,1.6,40.588,40.588,0,0,1,5.945,1.077,14.305,14.305,0,0,1-.424,3.127,48.822,48.822,0,0,0-6.013-1.682,13.954,13.954,0,0,1-.843,2.472,46.923,46.923,0,0,1,5.908,2.495,17.69,17.69,0,0,1-1.189,2.665,61.016,61.016,0,0,0-5.815-2.95,28.2,28.2,0,0,1-2.039,3.163c1.9,1.152,3.685,2.4,5.463,3.74-.533.781-1.3,1.718-1.76,2.276-1.706-1.418-5.205-4.2-5.205-4.2a19.146,19.146,0,0,1-3.207,3.17c1.436,1.469,3.315,3.57,4.489,5.024a11.793,11.793,0,0,1-1.911,1.629c-1.425-1.75-3.139-3.962-4.137-5.35a20.566,20.566,0,0,1-3.688,2.433v2.057l2.274,4.547a10.034,10.034,0,0,1-1.6.817l-.676-1.326v2.39c8.768-3.894,17.693-12.481,20.288-21.8.95-3.223,1.115-7.37-.438-10.374a10.871,10.871,0,0,0-4.71-4.821m-1.308-1.355c.382.125.747.295,1.112.454l.206-.035a16.759,16.759,0,0,1,5.268,1.81c-.872.007-1.772-.006-2.643.066a14.529,14.529,0,0,1,1.063,1.054c1.178-.023,2.318,0,3.441.077a10.482,10.482,0,0,1,2.881,3.044A37.008,37.008,0,0,0,413.4,19.4c.207.475.418.965.594,1.473a52.565,52.565,0,0,1,5.247,1.018,12.569,12.569,0,0,1,1.178,3.7,42.817,42.817,0,0,0-5.809-1.716c.05.641.055,1.3.059,1.948a44.149,44.149,0,0,1,5.982,2.155,15.142,15.142,0,0,1-.426,3.759,48.433,48.433,0,0,0-6-2.633,27.388,27.388,0,0,1-1.007,3.38,64.071,64.071,0,0,1,5.826,3.279,16.666,16.666,0,0,1-1.469,3.08c-1.843-1.26-3.688-2.486-5.611-3.552a22.841,22.841,0,0,1-2.465,4.024c1.713,1.349,3.467,2.754,5.118,4.247a20.1,20.1,0,0,1-2.09,2.628c-1.205-1.27-3.218-3.078-4.893-4.491a33.494,33.494,0,0,1-3.994,4.191c1.076,1.131,4.271,4.98,4.271,4.98a18.792,18.792,0,0,1-2.252,1.88S402.4,48.57,401.6,47.562a34.54,34.54,0,0,1-5.73,3.8c.894,1.524,3.115,5.655,3.115,5.655a10.2,10.2,0,0,1-1.762.9c-1.049-1.74-2.31-4.261-2.982-5.7a9.9,9.9,0,0,1-1.3.587v7.522A43.478,43.478,0,0,0,411.3,48.557c4.833-5.238,8.656-10.893,9.791-17.65a14.248,14.248,0,0,0-5.156-13.891c-2.594-2.222-5.809-3-9.174-3.391M404.5,17.213c-2.976-3.008-7.541-3.26-11.568-2.313,0,0,0,.366,0,.366a14.6,14.6,0,0,1,2.931-.348,15.977,15.977,0,0,0-1.847,1.339,4.252,4.252,0,0,1,.732.233,25.74,25.74,0,0,1,2.52-1.611,9.185,9.185,0,0,1,2.979.505,19.89,19.89,0,0,0-3.961,1.907,2.365,2.365,0,0,1,.539.423,30.473,30.473,0,0,1,4.595-1.941,6.409,6.409,0,0,1,1.908,1.212,37.46,37.46,0,0,0-5.6,1.706,3.793,3.793,0,0,1,.464.724,47.853,47.853,0,0,1,6-1.628,5.562,5.562,0,0,1,1.056,1.639,43.208,43.208,0,0,0-6.6,1.127,4.66,4.66,0,0,1,.225.854,46.786,46.786,0,0,1,6.828-.813,7.286,7.286,0,0,1,.326,2.105,46.01,46.01,0,0,0-7.046.165c0,.273-.039.82-.074,1.158a49.284,49.284,0,0,1,7.05.245,17.02,17.02,0,0,1-.478,2.35,42.712,42.712,0,0,0-6.934-.964,6.891,6.891,0,0,1-.507,1.512,41.806,41.806,0,0,1,6.629,1.8,20.171,20.171,0,0,1-1.021,2.044,49.274,49.274,0,0,0-6.361-2.357,12.227,12.227,0,0,1-1.348,2.115c1.351.658,3.941,2.12,5.717,3.268a18.071,18.071,0,0,1-1.4,1.68c-1.72-1.34-3.426-2.6-5.294-3.788a19.271,19.271,0,0,1-2.035,2.011v.217l4.292,4.569a17.085,17.085,0,0,1-1.47,1.2l-2.822-3.607V42.69a32.03,32.03,0,0,0,11.248-11.2c2.023-3.56,3.555-8.38,1.595-12.473a7.375,7.375,0,0,0-1.274-1.8m12.822.045,1.267.155a13.2,13.2,0,0,1,3.475,2.69,8.241,8.241,0,0,1,1.069,1.307c-1.045-.3-2.058-.656-3.138-.89a10.858,10.858,0,0,1,.894,1.79c1.206.347,2.4.763,3.573,1.18a14.92,14.92,0,0,1,1.561,4.573c-1.351-.676-2.705-1.335-4.1-1.881a14.007,14.007,0,0,1,.108,2.4,38.118,38.118,0,0,1,4.3,2.314,18.275,18.275,0,0,1-.4,4.372,37.575,37.575,0,0,0-4.4-2.762,19.638,19.638,0,0,1-1.261,4.015,47.146,47.146,0,0,1,4.38,3.254,26.008,26.008,0,0,1-1.581,3.443c-1.41-1.212-2.845-2.371-4.338-3.491a25.477,25.477,0,0,1-3.062,4.753c1.434,1.323,2.8,2.617,4.172,4.034a22.174,22.174,0,0,1-2.3,2.843c-1.3-1.4-2.647-2.834-4.009-4.175a43.862,43.862,0,0,1-4.7,4.762,43.715,43.715,0,0,1,3.648,4.495c-.833.714-1.611,1.385-2.443,2l-3.525-4.549a49.549,49.549,0,0,1-6.8,4.359l1.849,3.086H407.3c8.761-5.982,16.675-14.866,19.114-24.783a18.109,18.109,0,0,0-4.1-16.8A13.586,13.586,0,0,0,415.855,16a9.9,9.9,0,0,1,1.468,1.26m-24.388-.505v1.059l.593-.411a4.9,4.9,0,0,1,1.435.608c-.684.4-1.388.8-2.02,1.23V19.9c.845-.515,1.839-1.118,2.625-1.517a3.263,3.263,0,0,1,.823.805c-1.136.453-2.719,1.225-3.457,1.615v.685a29.046,29.046,0,0,1,3.98-1.642,3.446,3.446,0,0,1,.4,1.031,27.525,27.525,0,0,0-4.376,1.385v.626a30.764,30.764,0,0,1,4.553-1.19,6.309,6.309,0,0,1,.106,1.283,41.446,41.446,0,0,0-4.656.705V24.4a36.692,36.692,0,0,1,4.581-.31,7.27,7.27,0,0,1-.388,1.443,41.378,41.378,0,0,0-4.2-.152c-.009,0-.009.954-.009.958a29.077,29.077,0,0,1,3.675.576,8.851,8.851,0,0,1-.66,1.287,21.1,21.1,0,0,0-3.015-.825v1.88a18.781,18.781,0,0,1,1.748.884,6.818,6.818,0,0,1-.849,1c-.394-.263-.9-.555-.9-.555v2.4a24.606,24.606,0,0,0,2.742-3.074c1.919-2.766,3.431-6.354,2.053-9.813a6.148,6.148,0,0,0-4.792-3.35m32.122,5.3a20.9,20.9,0,0,1,1.1,2.089l1.529.7a19.133,19.133,0,0,1,2.423,5.655c-.843-.532-1.7-1.085-2.562-1.552a21.413,21.413,0,0,1,.19,2.714,31.661,31.661,0,0,1,2.912,2.222,23.191,23.191,0,0,1-.291,4.946,25.5,25.5,0,0,0-3.147-2.613,22.473,22.473,0,0,1-1.393,4.555,29.885,29.885,0,0,1,3.281,3.1,23.667,23.667,0,0,1-1.627,3.687c-1.041-1.12-2.176-2.284-3.31-3.28a45.856,45.856,0,0,1-3.35,5.232c1.134,1.162,2.182,2.377,3.22,3.6a32.953,32.953,0,0,1-2.443,2.967c-1.051-1.212-2.036-2.456-3.135-3.638a41.077,41.077,0,0,1-5.041,5.11c1.174,1.424,2.951,3.788,2.951,3.788h1a58.539,58.539,0,0,0,5.277-5.387c4.009-4.906,7.181-10.147,8.287-16.235a19.7,19.7,0,0,0-4.7-17.221l-1.172-.44Zm4.01,3.2-.019.047a20.53,20.53,0,0,1,4.043,7.36l-.014.029-1.414-1.07a24.4,24.4,0,0,1,.363,3.247,12.019,12.019,0,0,1,1.964,1.851,25.745,25.745,0,0,1-.221,5.655,21.058,21.058,0,0,0-2.191-2.446,23.924,23.924,0,0,1-1.335,4.892,23.746,23.746,0,0,1,2.316,3,22.134,22.134,0,0,1-1.629,3.873c-.8-1.03-1.363-1.863-2.4-3.089a45.235,45.235,0,0,1-3.588,5.627c.91,1.073,1.748,2.192,2.54,3.323a35.506,35.506,0,0,1-2.436,3.076c-.828-1.14-1.711-2.271-2.572-3.4a39.176,39.176,0,0,1-3.876,4.108h6.749A37.38,37.38,0,0,0,434.126,44.4c1.327-6.357.277-13.086-3.819-17.878a8,8,0,0,0-1.24-1.273m5.76,8.839a30.176,30.176,0,0,1,.529,3.816,13.776,13.776,0,0,1,1.1,1.468,24.149,24.149,0,0,1-.43,5.652L435,43.758a30.8,30.8,0,0,1-1.387,5.209l1.133,1.968a28.142,28.142,0,0,1-1.609,4.112c-.425-.688-.82-1.446-1.257-2.047a47.625,47.625,0,0,1-3.566,5.774L429.9,61.33h.367a36.045,36.045,0,0,0,6.645-19.035,17.378,17.378,0,0,0-1.926-8.054l-.158-.156Zm3.033,10.2c-.13.956-.2,1.922-.368,2.828l-.3-.412a29.471,29.471,0,0,1-1.472,5.564l.471,1.3a37.284,37.284,0,0,1-1.5,4.181,7.145,7.145,0,0,0-.679-1.392,46.778,46.778,0,0,1-2.857,4.974h2.53a42.6,42.6,0,0,0,3.253-8.408,24.787,24.787,0,0,0,.935-8.64h-.011Zm.156,6.965a77.1,77.1,0,0,1-2.294,8.678,6.193,6.193,0,0,1-.269-.581c-.378.763-.952,1.984-.952,1.984h1.3a35.482,35.482,0,0,0,2.218-10.082m-40.262,7.93a42.8,42.8,0,0,1-4.821,1.851v.3h6.02Zm13.182.4c-.627.448-1.422,1.155-2.377,1.758h3.528s-.763-1.148-1.151-1.758" fill="#005daa"/>
  </g>
</svg>
