<svg xmlns="http://www.w3.org/2000/svg" width="55" height="55" viewBox="0 0 55 55">
  <g id="qr" transform="translate(2034 -4467)">
    <rect id="Rectangle_1377" data-name="Rectangle 1377" width="55" height="55" transform="translate(-2034 4467)" fill="#fff" opacity="0"/>
    <g id="Group_7949" data-name="Group 7949" transform="translate(164.2 -291.693)">
      <path id="Path_8478" data-name="Path 8478" d="M927.119,66.506c0,.242-3.383.469-8.231.654a11.056,11.056,0,0,1-1.976-1.393c5.871.213,10.207.469,10.207.739m-3.483-8.174c0,.2-2.843.384-6.909.554.6-.355,1.208-.7,1.82-1.023,3.07.142,5.089.3,5.089.469M893.372,75.916c-1.876.028-3.525.028-4.819.028-1.848,0-3.355-.569-3.355-1.279s1.507-1.279,3.355-1.279c1.635,0,3.867.014,6.411.043-.981,1.422-1.45,2.274-1.507,2.331Zm1.009,1.706a17.16,17.16,0,0,0,2,2.061s.3.426,1.208.057a5.751,5.751,0,0,0,2.6-2.075c2.587.043,5.331.1,8.032.156.227.327.668,1,1.223,1.82-7.52.2-15.694.313-19.887.313-1.748,0-3.156-.54-3.156-1.208s1.407-1.208,3.156-1.208c1.279,0,2.914.014,4.791.028.028.043.028.057.028.057m-2.914,6.283c-1.549,0-2.8-.483-2.8-1.066s1.251-1.066,2.8-1.066c4.094,0,12.481.128,19.66.327.341.5.7,1,1.023,1.45-7.392.213-16.39.355-20.683.355m23.867,3.412c-6.027.27-16.4.441-20.726.441-1.208,0-2.2-.384-2.2-.839s.981-.839,2.2-.839c4.122,0,13.8.156,19.916.412.284.284.554.569.81.824M899.6,89.577c3.554,0,14.4.27,14.4.6s-10.832.6-14.4.6c-.7,0-1.251-.27-1.251-.6s.554-.6,1.251-.6m.043-21.906c-4.478.071-8.5.114-11.074.114-1.848,0-3.355-.569-3.355-1.279s1.507-1.279,3.355-1.279c3,0,7.932.057,13.277.156-.768.739-1.493,1.507-2.2,2.289m21.977-5.715c2.63.142,4.279.3,4.279.455,0,.185-2,.355-5.089.5a2.286,2.286,0,0,0,.81-.952M889.591,63.62c-1.749,0-3.156-.54-3.156-1.208s1.407-1.208,3.156-1.208c3.582,0,10.064.085,16.575.227-.768.654-1.521,1.308-2.274,1.99-5.714.128-11.145.2-14.3.2m19.446-4.492c-6.653.171-13.86.27-17.57.27-1.549,0-2.8-.469-2.8-1.066s1.251-1.066,2.8-1.066c4.08,0,12.453.128,19.631.327-.355.256-.711.526-1.08.8-.327.256-.654.5-.981.739m-14.414-4.037c-1.208,0-2.2-.37-2.2-.839s.981-.839,2.2-.839c4.577,0,15.992.2,21.792.483-.37.242-.739.5-1.109.739-6.056.27-16.39.455-20.683.455m-6.411,16.8c-1.891,0-3.412-.583-3.412-1.308s1.535-1.294,3.412-1.294c2.36,0,5.9.028,9.908.1-.682.8-1.336,1.606-1.962,2.445-3.2.028-5.985.057-7.946.057M898.333,51c0-.327.554-.6,1.251-.6,3.554,0,14.4.27,14.4.6s-10.832.6-14.4.6c-.682,0-1.237-.27-1.251-.6" transform="translate(-3083 4719.464)" fill="#747f8a"/>
      <path id="Path_8479" data-name="Path 8479" d="M978.484,26.346a17.241,17.241,0,0,1-.014,1.919c-6.312.256-12.282.625-12.282,1.052s5.842.8,12.083,1.038c-.114.711-.256,1.422-.426,2.118C971.7,32.728,966,33.1,966,33.51s5.317.768,11.216,1.009a21.019,21.019,0,0,1-.924,2.189c-5.061.242-9.24.569-9.24.924,0,.327,3.653.64,8.259.867-.256.412-.526.824-.81,1.223-.313.426-.625.853-.967,1.265-2.886.213-4.862.469-4.862.739,0,.227,1.422.441,3.6.64a21.419,21.419,0,0,1-4.25,3.241,34.517,34.517,0,0,1-3.568-3.639c-1.436-1.748-4.492-6.368-5.2-7.406s-1.194-1.336-2.033-1.038a11.139,11.139,0,0,1-2.843.6c-.412,0-.626-.156.057-.426a9.431,9.431,0,0,0,4.634-4.122c1.464-2.914.171-6.951.171-6.951a5.052,5.052,0,0,1-1.621,2.957,6.321,6.321,0,0,0-1.024-5.089l-.554,2.53s-.341-.014-1.194.7a3.568,3.568,0,0,0-1.08,1.763c.668.27,1.478-.4,1.478-.4a32.7,32.7,0,0,1-3.582,8.657,6.16,6.16,0,0,1-3.042,2.729c-.91.37-1.208-.057-1.208-.057a16.15,16.15,0,0,1-2-2.061s-.057-.085.114-.085c.441,0,1.237-.753,1.407-1.066.2-.355.171-.64.071-.654s-.27.27-1.123.81-1.237.171-1.521-.128c-.213-.242,0-.54.128-.725s4.634-8.558,16.547-17.385C976.636,3.559,986.615.431,987.184.2c.384-.142,1-.341,1.137-.2a.585.585,0,0,1,.213.483c-.014.185-.114.284-.839.6a136.067,136.067,0,0,0-16.959,9.6,81.032,81.032,0,0,0-9.723,5.871c-.37.227-.1.569.128.426,8.259-5.487,17.925-9.226,28.63-12.3.512-.142.8-.142.881-.028a.783.783,0,0,1,.156.426c.014.2-.142.3-.583.469q-17.229,6.4-25.4,11.9s-.569.341-.569.739c0,.156.3.171.3.171,2.729.043,6.368.213,8.1.313,0,0-.242.881-1.9,1.592a8.933,8.933,0,0,1-3.639.469.325.325,0,0,0-.27.54c.057.142,2.559,4.165,11.642,5.075" transform="translate(-3134.01 4762.737)" fill="#5c0632"/>
    </g>
  </g>
</svg>
