<svg xmlns="http://www.w3.org/2000/svg" width="55" height="55" viewBox="0 0 55 55">
  <g id="sq" transform="translate(2033 -4467)">
    <rect id="Rectangle_1377" data-name="Rectangle 1377" width="55" height="55" transform="translate(-2033 4467)" fill="#fff" opacity="0"/>
    <g id="singapore-airlines" transform="translate(-2032 4467.001)">
      <path id="Path_8473" data-name="Path 8473" d="M100.805,60.395s5.093-7.609,5.552-8.36a3.347,3.347,0,0,0,.082-3.168c-.257-.41-7.851-12.421-7.851-12.421a2.5,2.5,0,0,1-.058-2.816c.749-1.105,2.07-3.064,2.07-3.064s9.219,14.463,9.6,15.109a4.317,4.317,0,0,1-.1,4.651c-.684,1.167-6.657,10.07-6.657,10.07" transform="translate(-82.116 -25.578)" fill="#f99c1c"/>
      <path id="Path_8474" data-name="Path 8474" d="M81.651,35.638s5.895-8.629,6.333-9.344a2.955,2.955,0,0,0,0-2.845c-.246-.392-8.43-13.274-8.43-13.274s-1.453,2.19-1.91,2.867A2.392,2.392,0,0,0,77.7,15.9s5.862,9.252,6.109,9.644a3.2,3.2,0,0,1-.076,3.015c-.438.706-6.483,9.519-6.483,9.519H94.693a3.939,3.939,0,0,0,3.6-1.921c.742-1.047,3.611-5.217,4.051-5.871a2.623,2.623,0,0,1,1.7-1.091h1.363l-2.66-4.047H98.5a3.267,3.267,0,0,0-2.3,1.482c-.4.6-3.306,4.95-3.827,5.649a.961.961,0,0,1-.787.483l-.552,0c.173-.347,5.046-7.44,6.005-9a6.7,6.7,0,0,0,.042-6.9C96.578,15.982,86.45,0,86.45,0S85.1,1.94,84.538,2.773A2.638,2.638,0,0,0,84.6,5.638s8.5,13.525,8.908,14.144a4.857,4.857,0,0,1,0,5.007c-.706,1.158-6.581,10.028-6.581,10.028h4.655a2.756,2.756,0,0,0,2.566-1.144c.466-.522,3-4.36,3.284-4.764s1.031-1.535,2-1.535h3.057v.088a2.914,2.914,0,0,0-1.759,1.163c-.465.63-3.537,5.18-3.907,5.71a2.522,2.522,0,0,1-2.334,1.3" transform="translate(-64.602 0)" fill="#f99c1c"/>
      <path id="Path_8475" data-name="Path 8475" d="M1.893,251.992H3.485a.616.616,0,0,1,0,1.233H.062v1.063h3.3a1.712,1.712,0,1,0,0-3.4c-.551,0-1.6,0-1.6,0a.6.6,0,0,1,0-1.2h3.43v-1.063h-3.3a1.694,1.694,0,1,0,0,3.365m17.006,2.3h2.527v-3.693H20.183v2.6H18.727a1.766,1.766,0,0,1,0-3.533h2.7v-1.034H18.9a2.849,2.849,0,1,0,0,5.66m-12.35-5.66H7.79v5.66H6.548Zm4.021,1.033h2.058a.867.867,0,0,1,.828.887v3.739h1.239v-3.895a1.713,1.713,0,0,0-1.786-1.765H11.279l-.709.943v-.943H9.328v5.66h1.241m33-4.625h1.95a.8.8,0,0,1,.745.834.792.792,0,0,1-.745.821H43.99l2.473,2.969h1.472l-1.753-2.11h0a1.788,1.788,0,0,0,1.238-1.717,1.819,1.819,0,0,0-1.852-1.833H42.344v5.66h1.223m9.8,0v-1.036l-3.315,0V251.8H52.94v-1.029H50.053v-1.112h3.315v-1.034H48.8v5.66h1.249M25.494,249.6l.9,2.045-1.791,0,.892-2.048m-1.316,3.041,2.638,0,.735,1.641h1.355l-2.771-5.66H24.853l-2.771,5.66h1.365m7.34-4.626h1.926a.85.85,0,0,1,.746.9.837.837,0,0,1-.746.887H30.787v-1.791m0,1.88v0l.709.942h1.27a1.929,1.929,0,0,0,0-3.851H29.539v5.66h1.248m7.551-4.776A1.933,1.933,0,1,1,36.4,251.45a1.937,1.937,0,0,1,1.937-1.939m0,5.013a3.077,3.077,0,1,0-3.07-3.073A3.077,3.077,0,0,0,38.338,254.524Zm-10.87,2.652h1.248v5.656H27.468Zm-.871,5.658V261.8l-2.894,0v-4.625H22.453v5.659H23.7M8.8,258.151l.9,2.045-1.79,0,.893-2.048m-1.315,3.04,2.636,0,.734,1.641h1.356l-2.77-5.659H8.154l-2.771,5.659H6.75m10.486-4.624h1.952a.805.805,0,0,1,.746.834.794.794,0,0,1-.746.821H17.661l2.473,2.968h1.472l-1.755-2.11h0a1.787,1.787,0,0,0,1.238-1.716,1.817,1.817,0,0,0-1.85-1.833H16.015v5.659h1.221m-4.193-5.658h1.242v5.659H13.042Zm31.571,3.364H46.2a.616.616,0,0,1,0,1.232H42.781v1.063h3.3a1.712,1.712,0,1,0,0-3.4c-.55,0-1.6,0-1.6,0a.6.6,0,0,1,0-1.2h3.428v-1.063h-3.3a1.694,1.694,0,1,0,0,3.364m-3.089,2.294V261.8l-3.315,0v-1.45H41.1v-1.029H38.208v-1.112h3.315v-1.034H36.961v5.659h1.247m-6.73-4.625h2.059a.865.865,0,0,1,.825.887v3.738H35.6v-3.894a1.713,1.713,0,0,0-1.786-1.765H32.189l-.709.943v-.943H30.239v5.659H31.48" transform="translate(0 -207.836)" fill="#021f5e"/>
    </g>
  </g>
</svg>
