<svg xmlns="http://www.w3.org/2000/svg" width="55" height="55" viewBox="0 0 55 55">
  <g id="ul" transform="translate(2033 -4467)">
    <rect id="Rectangle_1377" data-name="Rectangle 1377" width="55" height="55" transform="translate(-2033 4467)" fill="#fff" opacity="0"/>
    <g id="Group_7945" data-name="Group 7945" transform="translate(637.684 126.527)">
      <path id="Path_8468" data-name="Path 8468" d="M54.146.318A2.389,2.389,0,0,1,55.1,0c-.185.3-.451.525-.628.828a7.288,7.288,0,0,0-.887,2.462A22.606,22.606,0,0,1,53.1,5.73a9.169,9.169,0,0,1-1.619,3.09,14.94,14.94,0,0,1-3.32,2.891,30.175,30.175,0,0,0-4.318,3.216A8.213,8.213,0,0,0,41.8,18.188a52.146,52.146,0,0,1-2.521,6.78A16.306,16.306,0,0,1,36.254,29.2a25.77,25.77,0,0,1-5.434,4.015,50.839,50.839,0,0,1-13.789,5.272A72.161,72.161,0,0,1,.662,40.317a3.579,3.579,0,0,1-.562-.03,55.628,55.628,0,0,0,14.218-3.726,36.715,36.715,0,0,0,11.3-7.32c.717-.695,1.4-1.42,2.048-2.181a28.045,28.045,0,0,0,3.482-5.93c.51-1.065,1.006-2.144,1.6-3.172a12.411,12.411,0,0,1,3.623-3.919,24.419,24.419,0,0,1,5.856-2.728c1.183-.429,2.366-.843,3.527-1.331A14.456,14.456,0,0,0,48,8.865a8.53,8.53,0,0,0,3.224-3.453c.473-.983.695-2.063,1.094-3.076a1.705,1.705,0,0,0-.895,1.072,1.685,1.685,0,0,1-1.375,1.05,1.851,1.851,0,0,0,.6-.858,2.061,2.061,0,0,1,1.782-1.5A4.421,4.421,0,0,1,54.146.318m-1.087,1.36a.355.355,0,0,0-.037.562.345.345,0,1,0,.037-.562Z" transform="translate(-2670.784 4347.473)" fill="#dc001c"/>
      <path id="Path_8469" data-name="Path 8469" d="M140.538,168.027a32.641,32.641,0,0,1,4.54-1.427c-.266.148-.562.244-.843.377a13.786,13.786,0,0,0-4.554,3.4,22.606,22.606,0,0,0-3.512,5.375,19.054,19.054,0,0,1-5.878,7.32,26.522,26.522,0,0,1-12.074,4.961,24.057,24.057,0,0,1-2.817.274c1.22-.392,2.44-.776,3.623-1.279a24.134,24.134,0,0,0,8.532-5.8,33.118,33.118,0,0,0,3.615-4.687c.562-.887,1.094-1.8,1.73-2.632a19.858,19.858,0,0,1,2.5-2.669A16.943,16.943,0,0,1,140.538,168.027Z" transform="translate(-2777.56 4193.191)" fill="#01742f"/>
      <path id="Path_8470" data-name="Path 8470" d="M424.523,198.716a7.662,7.662,0,0,1,1.042-1.516,24.069,24.069,0,0,0-.54,3,35.612,35.612,0,0,0-.007,4.784,12.094,12.094,0,0,1-3.97,10.24,13.423,13.423,0,0,1-6.95,3.068,14.5,14.5,0,0,1-3.1.163c.54-.347,1.124-.628,1.678-.961a26.012,26.012,0,0,0,4.7-3.3,18.484,18.484,0,0,0,3.556-4.577,20.23,20.23,0,0,0,1.789-5.4A20.683,20.683,0,0,1,424.523,198.716Z" transform="translate(-3051.305 4164.853)" fill="#ff3c00"/>
    </g>
  </g>
</svg>
