<svg id="logo-light" xmlns="http://www.w3.org/2000/svg" width="272.525" height="77.365" viewBox="0 0 272.525 77.365">
  <g id="Group_11" data-name="Group 11">
    <path id="Path_16" data-name="Path 16" d="M129.406.149a53.681,53.681,0,0,1-16.844,3.167H12.225A12.222,12.222,0,0,0,0,15.537V64.81A12.224,12.224,0,0,0,12.225,77.035H82.772V64.558L70.427,38.569l-.584-1.195-.478-1.009L66.9,31.216h12.4L87.762,53.17h.027l.372.956s2.363-6.8,3.186-8.734c1.46-3.531,6.292-14.176,6.292-14.176l3.655,3.178-1.606,2.944,1.7.929,1.505-2.479,3.289,2.862-3.026,5.628-3.053,6.477a66.888,66.888,0,0,0-6.477,26.281h22.923A12.226,12.226,0,0,0,128.776,64.81V19.5A45.114,45.114,0,0,1,132.095,2.9,2.1,2.1,0,0,0,129.406.149M35.094,46.921H21.131V64.494H10.645V25.471H21.131V37.39H35.094Zm6.929-21.529H24.688v-9.5H42.023Zm28.6,29.578,4.513,9.5H48.49V15.867H58.975v39.1Z" transform="translate(0 0)" fill="#ff6700"/>
    <path id="Path_17" data-name="Path 17" d="M39.922,15.593l-1.641-.857-1.715,3.624,1.5.722Z" transform="translate(60.504 24.382)" fill="#ff6700"/>
    <path id="Path_18" data-name="Path 18" d="M35.685,20.482l1.285.542,1.678-3.573-1.434-.661Z" transform="translate(59.046 27.78)" fill="#ff6700"/>
    <path id="Path_19" data-name="Path 19" d="M34.911,22.657l1.057.38,1.492-3.669-1.211-.483Z" transform="translate(57.764 31.246)" fill="#ff6700"/>
    <path id="Path_20" data-name="Path 20" d="M34.259,24.859l.815.239,1.277-3.748-.974-.329Z" transform="translate(56.686 34.781)" fill="#ff6700"/>
    <path id="Path_21" data-name="Path 21" d="M33.748,27.1l.563.122,1.03-3.831-.733-.2Z" transform="translate(55.84 38.38)" fill="#ff6700"/>
    <path id="Path_22" data-name="Path 22" d="M33.405,29.355l.3.04.727-3.894-.475-.093Z" transform="translate(55.273 42.039)" fill="#ff6700"/>
    <path id="Path_23" data-name="Path 23" d="M33.266,31.627H33.3l.361-3.963-.21-.021Z" transform="translate(55.043 45.738)" fill="#ff6700"/>
    <path id="Path_24" data-name="Path 24" d="M97.6,5.022H71.587V58.733h34.834V48.221H83.172V36.787H98.98V26.506H83.172V15.534h23.249V5.014H97.6Z" transform="translate(118.451 8.296)" fill="#1511b1"/>
    <path id="Path_25" data-name="Path 25" d="M126.857,10.193a9.633,9.633,0,0,0-4.008-4.035,12.47,12.47,0,0,0-6.079-1.434h-18.1a12.365,12.365,0,0,0-6.053,1.434,9.694,9.694,0,0,0-4.035,4.035,12.285,12.285,0,0,0-1.407,6.053V48.472a12.285,12.285,0,0,0,1.407,6.053,9.849,9.849,0,0,0,4.035,4.035,12.356,12.356,0,0,0,6.053,1.407H112.84V49.455H102.514a3.515,3.515,0,0,1-3.849-3.9V19.165a3.88,3.88,0,0,1,1.035-2.92,3.882,3.882,0,0,1,2.814-1.009h10.433a3.977,3.977,0,0,1,2.92,1.009,3.967,3.967,0,0,1,.982,2.92V44.544H128.29v-28.3a12.294,12.294,0,0,0-1.433-6.053" transform="translate(144.235 7.816)" fill="#1511b1"/>
    <path id="Path_26" data-name="Path 26" d="M83.252,5.022h-18.8a12.476,12.476,0,0,0-6.063,1.42,9.864,9.864,0,0,0-4.03,4.027,12.5,12.5,0,0,0-1.418,6.061V47.223a12.505,12.505,0,0,0,1.418,6.063,9.864,9.864,0,0,0,4.03,4.027,12.476,12.476,0,0,0,6.063,1.42H92.076V28.808H80.565V48.221H68.29a3.534,3.534,0,0,1-3.836-3.913V19.447A3.874,3.874,0,0,1,65.49,16.53a3.868,3.868,0,0,1,2.8-1H92.076V5.014H83.252Z" transform="translate(87.603 8.296)" fill="#1511b1"/>
    <path id="Path_27" data-name="Path 27" d="M55.914,5.654l.048.008a.919.919,0,0,1,.68.99c.04,1.63-1,3.164-1.933,4.372-.722.932-1.55,1.757-2.278,2.684l.868,2.278a.525.525,0,0,1,.608-.093,3.509,3.509,0,0,1,.7.656c.2.542-.4.911-.642,1.3l.088.289c.377-.263.626-.074.924.188.061.053.149.127.2.181a1,1,0,0,1,.207.35c.1.422-.483.8-.627,1.141l.9,2.466a.79.79,0,0,1-.1.457,10.99,10.99,0,0,1-.871,1.049.506.506,0,0,1-.738-.122l-3.087-4.874-1.625-1.5L47,19.936l-1.662,1.627.653,3.99c.024.438-.419.842-.7,1.107l-.34.027a1.041,1.041,0,0,1-.3-.3c-.531-.828-.942-1.832-1.468-2.679-.08-.093-.223-.276-.348-.265-.093.008-.173.082-.26.1-.608.13-.985-.2-.953-.852.005-.109.074-.207.053-.321-.053-.265-.988-.547-1.237-.648-.565-.236-1.386-.5-1.9-.788a1.038,1.038,0,0,1-.255-.226l-.027-.353c.207-.334.526-.849.945-.889l3.884.074c.491-.78,1.014-1.534,1.534-2.291l1.757-2.344-1.548-1.383-5.206-2.519a.546.546,0,0,1-.226-.741,10.316,10.316,0,0,1,.865-1.057.69.69,0,0,1,.417-.17l2.474.563c.244-.186.372-.48.6-.68a.516.516,0,0,1,.55-.09,1.493,1.493,0,0,1,.319.215,1.934,1.934,0,0,1,.327.316.638.638,0,0,1,.133.539c-.013.058-.077.08-.056.151l.289.045c.327-.3.613-1.009,1.139-.855a3.254,3.254,0,0,1,.727.621.583.583,0,0,1,0,.64l.04.035,2.251.518c.775-.908,1.452-1.9,2.241-2.79.988-1.118,2.331-2.477,3.868-2.607a1.736,1.736,0,0,1,.332-.005" transform="translate(63.298 9.345)" fill="#c65406"/>
    <path id="Path_28" data-name="Path 28" d="M58.443,3.443l.056.008a1.049,1.049,0,0,1,.775,1.134c.045,1.864-1.136,3.616-2.206,5-.828,1.065-1.776,2.01-2.607,3.069l.993,2.6a.593.593,0,0,1,.7-.106,3.905,3.905,0,0,1,.8.749c.226.619-.451,1.041-.733,1.489l.1.332c.433-.3.717-.085,1.059.215.066.061.17.146.231.207a1.083,1.083,0,0,1,.239.4c.109.483-.555.913-.719,1.306l1.035,2.817a.9.9,0,0,1-.114.523,12.373,12.373,0,0,1-1,1.2.583.583,0,0,1-.844-.141l-3.528-5.572-1.858-1.712-2.564,2.809-1.9,1.858.746,4.563c.029.5-.478.964-.8,1.266l-.388.029a1.147,1.147,0,0,1-.348-.34c-.608-.948-1.078-2.095-1.678-3.061-.09-.109-.258-.316-.4-.305-.106.011-.2.093-.3.114-.7.151-1.128-.231-1.088-.974.005-.122.085-.236.058-.366-.061-.3-1.128-.624-1.412-.741a22.766,22.766,0,0,1-2.169-.9,1.126,1.126,0,0,1-.292-.257l-.029-.4c.239-.38.6-.972,1.08-1.017l4.441.085c.56-.889,1.157-1.752,1.752-2.617l2.01-2.681-1.768-1.58-5.952-2.88a.629.629,0,0,1-.26-.849,12.285,12.285,0,0,1,.99-1.205.82.82,0,0,1,.478-.2l2.827.645c.279-.212.427-.547.685-.778a.589.589,0,0,1,.629-.1,1.588,1.588,0,0,1,.364.244,2.191,2.191,0,0,1,.374.361.747.747,0,0,1,.154.616c-.016.066-.09.093-.066.173l.332.053c.374-.34.7-1.152,1.3-.977a3.661,3.661,0,0,1,.831.709.658.658,0,0,1,.005.73l.045.042,2.575.589c.884-1.038,1.659-2.169,2.559-3.191C54.769,5.15,56.307,3.6,58.067,3.451a1.989,1.989,0,0,1,.377-.008" transform="translate(63.298 5.686)" fill="#fff"/>
    <path id="Path_29" data-name="Path 29" d="M4.011,9.538h0A5.136,5.136,0,0,1,9.148,4.4h.223a5.137,5.137,0,0,1,0,10.273H9.148A5.136,5.136,0,0,1,4.011,9.538" transform="translate(6.637 7.282)" fill="#1511b1"/>
    <rect id="Rectangle_6" data-name="Rectangle 6" width="10.719" height="10.491" transform="translate(261.399 56.62)" fill="#ff6700"/>
  </g>
</svg>
